<svg width="0" height="0" class="hidden">
  <symbol xmlns="http://www.w3.org/2000/svg" id="basket">
    <path fill-rule="evenodd" fill="#FFF" d="M17.726 3.663h.001l-2.475 5.5a.826.826 0 0 1-.697.485l-7.128.475.412 1.176H15.6a1.65 1.65 0 1 1-1.65 1.651h-7.7a1.65 1.65 0 1 1-1.65-1.651h1.491L2.915 2.225h-1.89a.825.825 0 0 1 0-1.65H3.5c.36 0 .663.232.776.553l.003-.001.48 1.373h12.216a.825.825 0 0 1 .751 1.163zM5.337 4.15l1.525 4.357 7.089-.473 1.748-3.884H5.337z"></path>
  </symbol>
  <symbol xmlns="http://www.w3.org/2000/svg" id="glass">
    <path fill-rule="evenodd" fill="#FFF" d="M17.317 14.983a1.65 1.65 0 0 1-2.334 2.333l-4.836-4.835A6.56 6.56 0 0 1 6.8 13.4a6.6 6.6 0 1 1 6.6-6.6 6.56 6.56 0 0 1-.919 3.347l4.836 4.836zM6.8 1.849a4.95 4.95 0 1 0 .001 9.901 4.95 4.95 0 0 0-.001-9.9z"></path>
  </symbol>
</svg>